<mxfile host="app.diagrams.net" modified="2023-08-26T17:06:19.182Z" agent="Mozilla/5.0 (Windows NT 10.0; Win64; x64) AppleWebKit/537.36 (KHTML, like Gecko) Chrome/116.0.0.0 Safari/537.36" version="21.6.9" etag="s_vcB90efJcTrevoC7_C" type="github">
  <diagram name="PÃ¡gina-1" id="FrBDQu9QCX3IIZR1dz-c">
    <mxGraphModel>
      <root>
        <mxCell id="0" />
        <mxCell id="1" parent="0" />
      </root>
    </mxGraphModel>
  </diagram>
</mxfile>
